<svg width="256" height="39" viewBox="0 0 256 39" fill="none" xmlns="http://www.w3.org/2000/svg">
<path d="M4.5 25.5C35.1667 16.8334 145.1 7.10005 219.5 25.5001" stroke="#7EA5E0" stroke-width="8" stroke-linecap="round"/>
<g clip-path="url(#clip0_449_3)">
<path d="M249.574 16.0494L245.497 9.28062C245.363 9.0549 245.185 8.85807 244.974 8.7015C244.763 8.54493 244.523 8.43174 244.268 8.36847C244.013 8.30519 243.748 8.29309 243.489 8.33286C243.229 8.37264 242.98 8.4635 242.755 8.60019L224.584 19.5456C224.359 19.6803 224.162 19.8582 224.006 20.0692C223.85 20.2803 223.737 20.5201 223.674 20.775L222.328 26.198C222.2 26.7129 222.282 27.2573 222.556 27.7117C222.829 28.1661 223.272 28.4931 223.787 28.6209L229.21 29.9667C229.465 30.0302 229.73 30.0425 229.989 30.0031C230.249 29.9636 230.498 29.8731 230.723 29.7367L248.894 18.7913C249.345 18.5152 249.669 18.0728 249.796 17.5598C249.923 17.0468 249.844 16.5042 249.574 16.0494ZM226.114 20.9558L238.94 13.2301L240.464 15.7589L227.638 23.4846L226.114 20.9558ZM225.133 23.1979L227.751 27.5439L224.269 26.6798L225.133 23.1979ZM230.192 27.7246L228.668 25.1957L241.494 17.4701L243.018 19.9989L230.192 27.7246ZM244.729 18.9682L240.651 12.1994L243.786 10.3113L247.863 17.0801L244.729 18.9682Z" fill="#F9FCFB"/>
</g>
<defs>
<clipPath id="clip0_449_3">
<rect width="32" height="32" fill="white" transform="translate(224.708) rotate(13.9375)"/>
</clipPath>
</defs>
</svg>
